<svg xmlns="http://www.w3.org/2000/svg" width="54.286" height="54.286" viewBox="0 0 54.286 54.286"><defs><style>.a{fill:#345461;}.b{fill:none;stroke:#345461;stroke-miterlimit:10;stroke-width:2px;}</style></defs><g transform="translate(1 1)"><path class="a" d="M-632.266,876.1h-5.027c-.019-.263-.049-.494-.049-.724q-.025-5.542-.044-11.083c0-.257-.022-.515-.037-.843H-641.6v-4.932c1.361-.107,2.737,0,4.146-.072.02-.234.049-.424.049-.615,0-1.012-.011-2.023-.007-3.035a8.125,8.125,0,0,1,.45-2.719,5.332,5.332,0,0,1,4.323-3.623,11.092,11.092,0,0,1,2.165-.142c1.028.012,2.056.1,3.06.147a21.445,21.445,0,0,1,.077,4.419,3.634,3.634,0,0,1-.424.051c-.638.006-1.276-.006-1.913.007a6.473,6.473,0,0,0-1.049.083,1.681,1.681,0,0,0-1.528,1.644c-.071.874-.042,1.757-.047,2.636,0,.367.022.735.037,1.192h4.846c-.217,1.707-.422,3.31-.633,4.969h-4.228c-.023,1.109,0,2.157,0,3.2s0,2.067,0,3.1q0,1.583,0,3.167C-632.266,873.956-632.266,874.988-632.266,876.1Z" transform="translate(660.568 -835.985)"/><circle class="b" cx="26.143" cy="26.143" r="26.143"/></g></svg>